<svg width="36" height="30" viewBox="0 0 36 30" fill="none" xmlns="http://www.w3.org/2000/svg">
<path d="M34.427 1.49116C32.9906 2.50437 31.4002 3.27932 29.717 3.78616C28.8136 2.74742 27.613 2.0112 26.2776 1.67705C24.9421 1.3429 23.5362 1.42695 22.2501 1.91784C20.964 2.40872 19.8597 3.28276 19.0865 4.42173C18.3133 5.56071 17.9085 6.90966 17.927 8.28616V9.78616C15.291 9.85451 12.6789 9.26988 10.3235 8.08433C7.96812 6.89878 5.94248 5.14911 4.427 2.99116C4.427 2.99116 -1.573 16.4912 11.927 22.4912C8.83779 24.5881 5.15774 25.6396 1.427 25.4912C14.927 32.9912 31.427 25.4912 31.427 8.24116C31.4256 7.82334 31.3854 7.40655 31.307 6.99616C32.8379 5.4864 33.9182 3.58023 34.427 1.49116V1.49116Z" stroke="#0080FB" stroke-width="2" stroke-linecap="round" stroke-linejoin="round"/>
</svg>
