<svg width="32" height="34" viewBox="0 0 32 34" fill="none" xmlns="http://www.w3.org/2000/svg">
<path d="M22 33.0001V27.1951C22.0563 26.4799 21.9596 25.7609 21.7165 25.0858C21.4734 24.4108 21.0894 23.7953 20.59 23.2802C25.3 22.7552 30.25 20.9702 30.25 12.7802C30.2496 10.6859 29.444 8.67195 28 7.15515C28.6838 5.32291 28.6354 3.29767 27.865 1.50015C27.865 1.50015 26.095 0.975151 22 3.72015C18.562 2.78838 14.938 2.78838 11.5 3.72015C7.405 0.975151 5.635 1.50015 5.635 1.50015C4.86456 3.29767 4.81622 5.32291 5.5 7.15515C4.04519 8.6832 3.23878 10.7153 3.25 12.8252C3.25 20.9552 8.2 22.7402 12.91 23.3252C12.4165 23.8351 12.0359 24.4433 11.793 25.11C11.55 25.7768 11.4502 26.4872 11.5 27.1951V33.0001M11.5 28.5001C4 30.7501 4 24.7502 1 24.0002L11.5 28.5001Z" stroke="#FFCE00" stroke-width="2" stroke-linecap="round" stroke-linejoin="round"/>
</svg>
