<svg width="78" height="29" viewBox="0 0 78 29" fill="none" xmlns="http://www.w3.org/2000/svg">
<path d="M6.96289 27H5.69727V1.6875H6.96289V27ZM4.43164 27H3.16602V1.6875H4.43164V27ZM1.90039 27H0.634766V1.6875H1.90039V27ZM9.49414 20.6719H21.6055V21.9375H9.49414V23.2031H21.6055V24.4688H9.49414V25.7344H21.6055V27H8.22852V1.6875H21.6055V2.95312H9.49414V4.21875H21.6055V5.48438H9.49414V6.75H21.6055V8.01562H9.49414V11.1621H20.9023V12.4277H9.49414V13.6934H20.9023V14.959H9.49414V16.2246H20.9023V17.4902H9.49414V20.6719Z" fill="#1071F3"/>
<path d="M42.8574 10.4062L41.8379 11.1797C40.8184 9.91406 39.5059 9.28125 37.9004 9.28125C36.5059 9.28125 35.3105 9.7793 34.3145 10.7754C33.3301 11.7598 32.8379 12.9492 32.8379 14.3438C32.8379 15.7383 33.3301 16.9336 34.3145 17.9297C35.3105 18.9141 36.5059 19.4062 37.9004 19.4062C38.6855 19.4062 39.418 19.2363 40.0977 18.8965C40.7891 18.5566 41.375 18.0879 41.8555 17.4902L42.8398 18.3164C42.2539 19.0547 41.5273 19.6348 40.6602 20.0566C39.793 20.4668 38.873 20.6719 37.9004 20.6719C36.1543 20.6719 34.6602 20.0566 33.418 18.8262C32.1875 17.584 31.5723 16.0898 31.5723 14.3438C31.5723 12.5977 32.1875 11.1094 33.418 9.87891C34.6602 8.63672 36.1543 8.01562 37.9004 8.01562C38.8848 8.01562 39.8105 8.23242 40.6777 8.66602C41.5449 9.08789 42.2715 9.66797 42.8574 10.4062ZM44.8262 8.82422L43.8242 9.59766C43.1211 8.70703 42.248 8.00977 41.2051 7.50586C40.1738 7.00195 39.0723 6.75 37.9004 6.75C35.8027 6.75 34.0098 7.49414 32.5215 8.98242C31.0449 10.4707 30.3066 12.2578 30.3066 14.3438C30.3066 16.4297 31.0449 18.2168 32.5215 19.7051C34.0098 21.1934 35.8027 21.9375 37.9004 21.9375C39.0723 21.9375 40.1797 21.6855 41.2227 21.1816C42.2656 20.666 43.1387 19.9629 43.8418 19.0723L44.8086 19.8809C43.9883 20.9121 42.9746 21.7266 41.7676 22.3242C40.5605 22.9102 39.2715 23.2031 37.9004 23.2031C36.2949 23.2031 34.8125 22.8105 33.4531 22.0254C32.0938 21.2285 31.0156 20.1504 30.2188 18.791C29.4336 17.4316 29.041 15.9492 29.041 14.3438C29.041 12.7383 29.4336 11.2559 30.2188 9.89648C31.0156 8.53711 32.0938 7.46484 33.4531 6.67969C34.8125 5.88281 36.2949 5.48438 37.9004 5.48438C39.2715 5.48438 40.5605 5.7832 41.7676 6.38086C42.9863 6.9668 44.0059 7.78125 44.8262 8.82422ZM46.8125 7.24219L45.8281 8.0332C44.8789 6.84961 43.7129 5.91797 42.3301 5.23828C40.9473 4.55859 39.4707 4.21875 37.9004 4.21875C36.5293 4.21875 35.2168 4.48828 33.9629 5.02734C32.7207 5.55469 31.6426 6.27539 30.7285 7.18945C29.8262 8.0918 29.1055 9.16992 28.5664 10.4238C28.0391 11.666 27.7754 12.9727 27.7754 14.3438C27.7754 15.7148 28.0391 17.0273 28.5664 18.2812C29.1055 19.5234 29.8262 20.6016 30.7285 21.5156C31.6426 22.418 32.7207 23.1387 33.9629 23.6777C35.2168 24.2051 36.5293 24.4688 37.9004 24.4688C39.4707 24.4688 40.9473 24.1289 42.3301 23.4492C43.7129 22.7695 44.8789 21.8379 45.8281 20.6543L46.7773 21.4805C45.7109 22.8047 44.4043 23.8477 42.8574 24.6094C41.3105 25.3594 39.6582 25.7344 37.9004 25.7344C36.3535 25.7344 34.877 25.4355 33.4707 24.8379C32.0645 24.2285 30.8516 23.4199 29.832 22.4121C28.8242 21.3926 28.0156 20.1797 27.4062 18.7734C26.8086 17.3672 26.5098 15.8906 26.5098 14.3438C26.5098 12.7969 26.8086 11.3203 27.4062 9.91406C28.0156 8.50781 28.8242 7.30078 29.832 6.29297C30.8516 5.27344 32.0645 4.46484 33.4707 3.86719C34.877 3.25781 36.3535 2.95312 37.9004 2.95312C39.6699 2.95312 41.3281 3.33398 42.875 4.0957C44.4336 4.85742 45.7461 5.90625 46.8125 7.24219ZM48.7812 5.66016L47.7617 6.41602C46.5781 4.95117 45.125 3.79688 43.4023 2.95312C41.6914 2.10938 39.8574 1.6875 37.9004 1.6875C36.1895 1.6875 34.5488 2.02148 32.9785 2.68945C31.4199 3.35742 30.0723 4.25977 28.9355 5.39648C27.8105 6.52148 26.9141 7.86914 26.2461 9.43945C25.5781 10.998 25.2441 12.6328 25.2441 14.3438C25.2441 16.0547 25.5781 17.6953 26.2461 19.2656C26.9141 20.8242 27.8105 22.1719 28.9355 23.3086C30.0723 24.4336 31.4199 25.3301 32.9785 25.998C34.5488 26.666 36.1895 27 37.9004 27C39.8574 27 41.6914 26.5781 43.4023 25.7344C45.125 24.8906 46.5781 23.7363 47.7617 22.2715L48.7637 23.0449C47.4629 24.6621 45.8633 25.9395 43.9648 26.877C42.0781 27.8027 40.0566 28.2656 37.9004 28.2656C36.0137 28.2656 34.209 27.8965 32.4863 27.1582C30.7754 26.4199 29.2988 25.4297 28.0566 24.1875C26.8145 22.9453 25.8242 21.4688 25.0859 19.7578C24.3477 18.0352 23.9785 16.2305 23.9785 14.3438C23.9785 12.457 24.3477 10.6582 25.0859 8.94727C25.8242 7.22461 26.8145 5.74219 28.0566 4.5C29.2988 3.25781 30.7754 2.26758 32.4863 1.5293C34.209 0.791016 36.0137 0.421875 37.9004 0.421875C40.0566 0.421875 42.084 0.890625 43.9824 1.82812C45.8809 2.75391 47.4805 4.03125 48.7812 5.66016Z" fill="#F2A702"/>
<path d="M75.7637 1.6875H77.3105L61.1738 27H59.5918L75.7637 1.6875ZM72.6348 1.6875H74.1816L58.0273 27H56.4805L72.6348 1.6875ZM69.5059 1.6875H71.0703L54.916 27H53.3516L69.5059 1.6875ZM66.377 1.6875H67.959L51.7871 27H50.2402L66.377 1.6875ZM58.6426 12.4277L57.8691 13.6582L50.2402 1.6875H51.7871L58.6426 12.4277ZM64.1797 23.5371L64.9531 22.3066L67.959 27H66.377L64.1797 23.5371ZM60.207 9.98438L59.4336 11.1973L53.3691 1.6875H54.916L60.207 9.98438ZM65.7441 21.0762L66.5176 19.8633L71.0703 27H69.5234L65.7441 21.0762ZM61.7715 7.52344L60.998 8.75391L56.4805 1.6875H58.0449L61.7715 7.52344ZM67.291 18.6328L68.082 17.4023L74.1992 27H72.6348L67.291 18.6328ZM63.3359 5.08008L62.5449 6.31055L59.5918 1.6875H61.1738L63.3359 5.08008ZM68.8555 16.1895L69.6465 14.9766L77.3105 27H75.7637L68.8555 16.1895Z" fill="#E5193B"/>
</svg>
