<svg id="_x31__x2C_5" enable-background="new 0 0 24 24" height="512" viewBox="0 0 24 24" width="512" xmlns="http://www.w3.org/2000/svg"><path d="m15.25 23.25h-12.5c-1.105 0-2-.895-2-2v-15.5c0-1.105.895-2 2-2h12.5c1.105 0 2 .895 2 2v15.5c0 1.105-.895 2-2 2z" fill="#cfd8dc"/><path d="m11.844 5.875h-5.688c-.844 0-1.531-.687-1.531-1.531v-1.313c0-.362.294-.656.656-.656h1.403c.287-1.009 1.216-1.75 2.316-1.75s2.029.741 2.316 1.75h1.403c.362 0 .656.294.656.656v1.313c0 .844-.687 1.531-1.531 1.531z" fill="#2196f3"/><circle cx="17" cy="17" fill="#fff" r="4"/><path d="m17 22c-2.757 0-5-2.243-5-5s2.243-5 5-5 5 2.243 5 5-2.243 5-5 5zm0-8.5c-1.93 0-3.5 1.57-3.5 3.5s1.57 3.5 3.5 3.5 3.5-1.57 3.5-3.5-1.57-3.5-3.5-3.5z"/><path d="m23.25 24c-.192 0-.384-.073-.53-.22l-3.068-3.068c-.293-.293-.293-.768 0-1.061s.768-.293 1.061 0l3.068 3.068c.293.293.293.768 0 1.061-.147.147-.339.22-.531.22z"/><path d="m10.81 14h-7.06c-.414 0-.75-.336-.75-.75v-3.5c0-.414.336-.75.75-.75h10.5c.414 0 .75.336.75.75v.54c0 .414-.336.75-.75.75-.342 0-.63-.228-.72-.54h-9.03v2h6.31c.414 0 .75.336.75.75s-.336.75-.75.75z"/><path d="m9.79 17h-6.04c-.414 0-.75-.336-.75-.75s.336-.75.75-.75h6.04c.414 0 .75.336.75.75s-.336.75-.75.75z"/><path d="m10.12 20h-6.37c-.414 0-.75-.336-.75-.75s.336-.75.75-.75h6.37c.414 0 .75.336.75.75s-.336.75-.75.75z"/><path d="m17.25 10.51c-.414 0-.75-.336-.75-.75v-4.01c0-.689-.561-1.25-1.25-1.25h-1.88c-.414 0-.75-.336-.75-.75s.336-.75.75-.75h1.88c1.517 0 2.75 1.234 2.75 2.75v4.01c0 .414-.336.75-.75.75z"/><path d="m13.35 24h-10.6c-1.517 0-2.75-1.233-2.75-2.75v-15.5c0-1.517 1.233-2.75 2.75-2.75h1.88c.414 0 .75.336.75.75s-.336.75-.75.75h-1.88c-.689 0-1.25.561-1.25 1.25v15.5c0 .689.561 1.25 1.25 1.25h10.6c.414 0 .75.336.75.75s-.336.75-.75.75z"/><path d="m12.25 6.5h-6.5c-.965 0-1.75-.785-1.75-1.75v-2c0-.414.336-.75.75-.75h1.604c.328-1.153 1.389-2 2.646-2s2.318.847 2.646 2h1.604c.414 0 .75.336.75.75v2c0 .965-.785 1.75-1.75 1.75zm-6.75-3v1.25c0 .138.112.25.25.25h6.5c.138 0 .25-.112.25-.25v-1.25h-1.5c-.414 0-.75-.336-.75-.75 0-.689-.561-1.25-1.25-1.25s-1.25.561-1.25 1.25c0 .414-.336.75-.75.75z"/></svg>