<?xml version="1.0" standalone="no"?>
<!DOCTYPE svg PUBLIC "-//W3C//DTD SVG 20010904//EN"
 "http://www.w3.org/TR/2001/REC-SVG-20010904/DTD/svg10.dtd">
<svg version="1.0" xmlns="http://www.w3.org/2000/svg"
 width="156.000000pt" height="156.000000pt" viewBox="0 0 156.000000 156.000000"
 preserveAspectRatio="xMidYMid meet">
<metadata>
Created by potrace 1.16, written by Peter Selinger 2001-2019
</metadata>
<g transform="translate(0.000000,156.000000) scale(0.100000,-0.100000)"
fill="#000000" stroke="none">
<path d="M306 1405 c-101 -36 -161 -126 -161 -240 0 -59 5 -78 28 -118 31 -53
92 -102 138 -112 l29 -7 0 -384 0 -384 25 -12 c19 -8 31 -8 50 0 l25 12 0 384
0 384 29 5 c45 9 113 68 140 122 38 72 37 172 -2 237 -62 106 -189 153 -301
113z m152 -115 c42 -26 72 -76 72 -120 0 -44 -30 -94 -72 -120 -117 -71 -259
71 -188 188 26 42 76 72 120 72 19 0 50 -9 68 -20z"/>
<path d="M798 1195 c-8 -18 -8 -31 0 -49 11 -24 14 -24 141 -28 186 -4 175 12
179 -267 l3 -218 -29 -6 c-46 -9 -113 -67 -141 -122 -38 -72 -37 -172 2 -237
136 -232 492 -119 464 149 -10 95 -87 190 -168 208 l-29 7 0 231 c0 222 -1
234 -23 272 -13 22 -40 49 -62 62 -36 21 -53 23 -183 23 -142 0 -142 0 -154
-25z m440 -685 c18 -11 41 -34 52 -52 71 -117 -71 -259 -188 -188 -18 11 -41
34 -52 52 -71 117 71 259 188 188z"/>
</g>
</svg>
