<svg width="58" height="22" viewBox="0 0 58 22" fill="none" xmlns="http://www.w3.org/2000/svg">
<path d="M4.30859 21H3.46484V1.59375H4.30859V21ZM2.62109 21H1.77734V1.59375H2.62109V21ZM0.933594 21H0.0898438V1.59375H0.933594V21ZM5.99609 16.7812H14.9727V17.625H5.99609V18.4688H14.9727V19.3125H5.99609V20.1562H14.9727V21H5.15234V1.59375H14.9727V2.4375H5.99609V3.28125H14.9727V4.125H5.99609V4.96875H14.9727V5.8125H5.99609V9.1875H10.6016V10.0312H5.99609V10.875H10.6016V11.7188H5.99609V12.5625H10.6016V13.4062H5.99609V16.7812Z" fill="#1071F2"/>
<path d="M31.707 8.22656L31.0156 8.68359C30.5938 8.05859 30.043 7.56641 29.3633 7.20703C28.6914 6.83984 27.9609 6.65625 27.1719 6.65625C25.8906 6.65625 24.7969 7.10938 23.8906 8.01562C22.9844 8.92188 22.5312 10.0156 22.5312 11.2969C22.5312 12.5781 22.9844 13.6719 23.8906 14.5781C24.7969 15.4844 25.8906 15.9375 27.1719 15.9375C27.9609 15.9375 28.6914 15.7539 29.3633 15.3867C30.043 15.0195 30.5938 14.5234 31.0156 13.8984L31.6953 14.3906C31.1953 15.125 30.5469 15.707 29.75 16.1367C28.9531 16.5664 28.0938 16.7812 27.1719 16.7812C26.4297 16.7812 25.7188 16.6367 25.0391 16.3477C24.3672 16.0586 23.7852 15.668 23.293 15.1758C22.8008 14.6836 22.4102 14.1016 22.1211 13.4297C21.832 12.75 21.6875 12.0391 21.6875 11.2969C21.6875 10.5547 21.832 9.84766 22.1211 9.17578C22.4102 8.49609 22.8008 7.91016 23.293 7.41797C23.7852 6.92578 24.3672 6.53516 25.0391 6.24609C25.7188 5.95703 26.4297 5.8125 27.1719 5.8125C28.1016 5.8125 28.9648 6.03125 29.7617 6.46875C30.5586 6.89844 31.207 7.48438 31.707 8.22656ZM33.1016 7.26562L32.3984 7.72266C31.8203 6.87891 31.0703 6.21094 30.1484 5.71875C29.2344 5.21875 28.2422 4.96875 27.1719 4.96875C26.0234 4.96875 24.9648 5.25391 23.9961 5.82422C23.0273 6.38672 22.2578 7.15234 21.6875 8.12109C21.125 9.08984 20.8438 10.1484 20.8438 11.2969C20.8438 12.4453 21.125 13.5039 21.6875 14.4727C22.2578 15.4414 23.0273 16.2109 23.9961 16.7812C24.9648 17.3438 26.0234 17.625 27.1719 17.625C28.2422 17.625 29.2383 17.375 30.1602 16.875C31.082 16.375 31.832 15.6992 32.4102 14.8477L33.1016 15.3281C32.4453 16.2969 31.5938 17.0625 30.5469 17.625C29.5078 18.1875 28.3828 18.4688 27.1719 18.4688C25.875 18.4688 24.6758 18.1484 23.5742 17.5078C22.4727 16.8672 21.6016 15.9961 20.9609 14.8945C20.3203 13.793 20 12.5938 20 11.2969C20 10 20.3203 8.80078 20.9609 7.69922C21.6016 6.59766 22.4727 5.72656 23.5742 5.08594C24.6758 4.44531 25.875 4.125 27.1719 4.125C28.3828 4.125 29.5078 4.40625 30.5469 4.96875C31.5938 5.53125 32.4453 6.29688 33.1016 7.26562ZM34.5078 6.32812L33.8047 6.78516C33.0703 5.70703 32.1172 4.85547 30.9453 4.23047C29.7812 3.59766 28.5234 3.28125 27.1719 3.28125C26.0859 3.28125 25.0469 3.49219 24.0547 3.91406C23.0625 4.33594 22.207 4.90625 21.4883 5.625C20.7773 6.33594 20.2109 7.1875 19.7891 8.17969C19.3672 9.17188 19.1562 10.2109 19.1562 11.2969C19.1562 12.3828 19.3672 13.4219 19.7891 14.4141C20.2109 15.4062 20.7773 16.2617 21.4883 16.9805C22.207 17.6914 23.0625 18.2578 24.0547 18.6797C25.0469 19.1016 26.0859 19.3125 27.1719 19.3125C28.5312 19.3125 29.793 18.9961 30.957 18.3633C32.1211 17.7305 33.0703 16.875 33.8047 15.7969L34.4844 16.3008C33.6719 17.4883 32.6211 18.4297 31.332 19.125C30.0508 19.8125 28.6641 20.1562 27.1719 20.1562C25.5703 20.1562 24.0898 19.7617 22.7305 18.9727C21.3711 18.1758 20.293 17.0977 19.4961 15.7383C18.707 14.3789 18.3125 12.8984 18.3125 11.2969C18.3125 9.69531 18.707 8.21484 19.4961 6.85547C20.293 5.49609 21.3711 4.42188 22.7305 3.63281C24.0898 2.83594 25.5703 2.4375 27.1719 2.4375C28.6719 2.4375 30.0664 2.78906 31.3555 3.49219C32.6445 4.1875 33.6953 5.13281 34.5078 6.32812ZM35.8906 5.36719L35.1875 5.82422C34.2969 4.51953 33.1445 3.48828 31.7305 2.73047C30.3242 1.97266 28.8047 1.59375 27.1719 1.59375C25.8594 1.59375 24.6016 1.85156 23.3984 2.36719C22.2031 2.875 21.1719 3.5625 20.3047 4.42969C19.4375 5.29688 18.7461 6.33203 18.2305 7.53516C17.7227 8.73047 17.4688 9.98438 17.4688 11.2969C17.4688 12.6094 17.7227 13.8672 18.2305 15.0703C18.7461 16.2656 19.4375 17.2969 20.3047 18.1641C21.1719 19.0312 22.2031 19.7227 23.3984 20.2383C24.6016 20.7461 25.8594 21 27.1719 21C28.8047 21 30.3281 20.6172 31.7422 19.8516C33.1562 19.0859 34.3086 18.0508 35.1992 16.7461L35.8789 17.2617C34.9102 18.668 33.6602 19.7852 32.1289 20.6133C30.5977 21.4336 28.9453 21.8438 27.1719 21.8438C25.7422 21.8438 24.375 21.5625 23.0703 21C21.7734 20.4453 20.6523 19.6992 19.707 18.7617C18.7695 17.8164 18.0195 16.6953 17.457 15.3984C16.9023 14.0938 16.625 12.7266 16.625 11.2969C16.625 9.86719 16.9023 8.50391 17.457 7.20703C18.0195 5.90234 18.7695 4.78125 19.707 3.84375C20.6523 2.89844 21.7734 2.14844 23.0703 1.59375C24.375 1.03125 25.7422 0.75 27.1719 0.75C28.9531 0.75 30.6094 1.16406 32.1406 1.99219C33.6719 2.82031 34.9219 3.94531 35.8906 5.36719Z" fill="#F2A702"/>
<path d="M43.4023 10.5117L42.8984 11.3086L36.793 1.59375H37.7891L43.4023 10.5117ZM47.5625 16.8516L48.0547 16.0547L51.1719 21H50.1758L47.5625 16.8516ZM44.3984 8.94141L43.8945 9.72656L38.7852 1.59375H39.7695L44.3984 8.94141ZM48.5586 15.2695L49.0508 14.4727L53.1641 21H52.168L48.5586 15.2695ZM45.3945 7.34766L44.9023 8.13281L40.7773 1.59375H41.7734L45.3945 7.34766ZM49.5664 13.6758L50.0586 12.8789L55.168 21H54.1719L49.5664 13.6758ZM46.3906 5.76562L45.8984 6.5625L42.7695 1.59375H43.7656L46.3906 5.76562ZM50.5508 12.0938L51.043 11.2969L57.1602 21H56.1641L50.5508 12.0938ZM55.5781 1.59375H56.5742L44.3633 21H43.3672L55.5781 1.59375ZM53.5977 1.59375H54.582L42.3711 21H41.375L53.5977 1.59375ZM51.5938 1.59375H52.5898L40.3672 21H39.3711L51.5938 1.59375ZM49.6016 1.59375H50.5977L38.375 21H37.3789L49.6016 1.59375Z" fill="#E5193B"/>
</svg>
